<mxfile host="Electron" modified="2023-11-11T03:21:32.070Z" agent="Mozilla/5.0 (Macintosh; Intel Mac OS X 10_15_7) AppleWebKit/537.36 (KHTML, like Gecko) draw.io/22.0.3 Chrome/114.0.5735.289 Electron/25.8.4 Safari/537.36" etag="bloLcLxIgURhMA23ubaJ" version="22.0.3" type="device">
  <diagram name="페이지-1" id="uqv4QZkwBnsejST32WX3">
    <mxGraphModel dx="980" dy="894" grid="1" gridSize="10" guides="1" tooltips="1" connect="1" arrows="1" fold="1" page="1" pageScale="1" pageWidth="827" pageHeight="1169" math="0" shadow="0">
      <root>
        <mxCell id="0" />
        <mxCell id="1" parent="0" />
        <mxCell id="pDmzrqsfV7kPPinhpybK-1" value="배치 서버 #1" style="sketch=0;points=[[0.015,0.015,0],[0.985,0.015,0],[0.985,0.985,0],[0.015,0.985,0],[0.25,0,0],[0.5,0,0],[0.75,0,0],[1,0.25,0],[1,0.5,0],[1,0.75,0],[0.75,1,0],[0.5,1,0],[0.25,1,0],[0,0.75,0],[0,0.5,0],[0,0.25,0]];verticalLabelPosition=bottom;html=1;verticalAlign=top;aspect=fixed;align=center;pointerEvents=1;shape=mxgraph.cisco19.server;fillColor=#005073;strokeColor=none;" vertex="1" parent="1">
          <mxGeometry x="80" y="100" width="27.500000000000004" height="50" as="geometry" />
        </mxCell>
        <mxCell id="pDmzrqsfV7kPPinhpybK-2" value="배치 서버 #2" style="sketch=0;points=[[0.015,0.015,0],[0.985,0.015,0],[0.985,0.985,0],[0.015,0.985,0],[0.25,0,0],[0.5,0,0],[0.75,0,0],[1,0.25,0],[1,0.5,0],[1,0.75,0],[0.75,1,0],[0.5,1,0],[0.25,1,0],[0,0.75,0],[0,0.5,0],[0,0.25,0]];verticalLabelPosition=bottom;html=1;verticalAlign=top;aspect=fixed;align=center;pointerEvents=1;shape=mxgraph.cisco19.server;fillColor=#005073;strokeColor=none;" vertex="1" parent="1">
          <mxGeometry x="250" y="100" width="27.500000000000004" height="50" as="geometry" />
        </mxCell>
        <mxCell id="pDmzrqsfV7kPPinhpybK-3" value="레디스" style="outlineConnect=0;dashed=0;verticalLabelPosition=bottom;verticalAlign=top;align=center;html=1;shape=mxgraph.aws3.redis;fillColor=#2E73B8;gradientColor=none;" vertex="1" parent="1">
          <mxGeometry x="160" y="260" width="40" height="40" as="geometry" />
        </mxCell>
        <mxCell id="pDmzrqsfV7kPPinhpybK-4" style="edgeStyle=orthogonalEdgeStyle;rounded=0;orthogonalLoop=1;jettySize=auto;html=1;entryX=0;entryY=0.5;entryDx=0;entryDy=0;entryPerimeter=0;endArrow=block;endFill=1;" edge="1" parent="1" source="pDmzrqsfV7kPPinhpybK-1" target="pDmzrqsfV7kPPinhpybK-3">
          <mxGeometry relative="1" as="geometry">
            <Array as="points">
              <mxPoint x="94" y="280" />
            </Array>
          </mxGeometry>
        </mxCell>
        <mxCell id="pDmzrqsfV7kPPinhpybK-5" style="edgeStyle=orthogonalEdgeStyle;rounded=0;orthogonalLoop=1;jettySize=auto;html=1;entryX=1;entryY=0.53;entryDx=0;entryDy=0;entryPerimeter=0;endArrow=block;endFill=1;" edge="1" parent="1" source="pDmzrqsfV7kPPinhpybK-2" target="pDmzrqsfV7kPPinhpybK-3">
          <mxGeometry relative="1" as="geometry">
            <Array as="points">
              <mxPoint x="264" y="281" />
            </Array>
          </mxGeometry>
        </mxCell>
        <mxCell id="pDmzrqsfV7kPPinhpybK-9" value="" style="edgeStyle=orthogonalEdgeStyle;rounded=0;orthogonalLoop=1;jettySize=auto;html=1;endArrow=block;endFill=1;" edge="1" parent="1" source="pDmzrqsfV7kPPinhpybK-6" target="pDmzrqsfV7kPPinhpybK-8">
          <mxGeometry relative="1" as="geometry" />
        </mxCell>
        <mxCell id="pDmzrqsfV7kPPinhpybK-6" value="생성 성공" style="text;html=1;strokeColor=none;fillColor=none;align=center;verticalAlign=middle;whiteSpace=wrap;rounded=0;" vertex="1" parent="1">
          <mxGeometry x="63.75" y="280" width="60" height="20" as="geometry" />
        </mxCell>
        <mxCell id="pDmzrqsfV7kPPinhpybK-7" value="생성 실패" style="text;html=1;strokeColor=none;fillColor=none;align=center;verticalAlign=middle;whiteSpace=wrap;rounded=0;" vertex="1" parent="1">
          <mxGeometry x="233.75" y="280" width="60" height="20" as="geometry" />
        </mxCell>
        <mxCell id="pDmzrqsfV7kPPinhpybK-8" value="태스크 실행" style="rounded=0;whiteSpace=wrap;html=1;fillColor=#f8cecc;strokeColor=#b85450;" vertex="1" parent="1">
          <mxGeometry x="53.75" y="350" width="80" height="30" as="geometry" />
        </mxCell>
      </root>
    </mxGraphModel>
  </diagram>
</mxfile>
